<svg width="19" height="18" viewBox="0 0 19 18" fill="none" xmlns="http://www.w3.org/2000/svg">
<path d="M18.246 9.08706C18.246 8.48773 18.1882 7.86906 18.0919 7.28906H9.74934V10.7111H14.5275C14.3349 11.8131 13.6991 12.7797 12.755 13.3984L15.6065 15.6217C17.2827 14.0557 18.246 11.7744 18.246 9.08706Z" fill="#4280EF"/>
<path d="M9.74934 17.7483C12.1384 17.7483 14.1422 16.9556 15.6065 15.6023L12.755 13.3983C11.965 13.9396 10.9439 14.249 9.74934 14.249C7.43731 14.249 5.49136 12.683 4.77848 10.595L1.84991 12.857C3.35273 15.8536 6.3969 17.7483 9.74934 17.7483Z" fill="#34A353"/>
<path d="M4.77848 10.5757C4.41241 9.47372 4.41241 8.27506 4.77848 7.17306L1.84991 4.89172C0.597565 7.40506 0.597565 10.3631 1.84991 12.8571L4.77848 10.5757Z" fill="#F6B704"/>
<path d="M9.74934 3.519C11.0017 3.49967 12.2348 3.983 13.1403 4.853L15.6643 2.301C14.0651 0.793004 11.9458 -0.0189959 9.74934 0.000337422C6.3969 0.000337422 3.35273 1.895 1.84991 4.89167L4.77848 7.173C5.49136 5.06567 7.43731 3.519 9.74934 3.519Z" fill="#E54335"/>
</svg>
