<svg width="244" height="37" viewBox="0 0 244 37" fill="none" xmlns="http://www.w3.org/2000/svg">
<path fill-rule="evenodd" clip-rule="evenodd" d="M18.8198 0.997726L23.2625 14.6711H37.6397L26.0083 23.1217L30.4513 36.7951L18.8198 28.3446L7.18843 36.7951L11.6311 23.1217L0 14.6711H14.3772L18.8198 0.997726Z" fill="#FFD800"/>
<path fill-rule="evenodd" clip-rule="evenodd" d="M70.5595 0.997726L75.0021 14.6711H89.3793L77.7479 23.1217L82.1909 36.7951L70.5595 28.3446L58.9281 36.7951L63.3707 23.1217L51.7396 14.6711H66.1168L70.5595 0.997726Z" fill="#FFD800"/>
<path fill-rule="evenodd" clip-rule="evenodd" d="M122.061 0.997726L126.503 14.6711H140.881L129.249 23.1217L133.692 36.7951L122.061 28.3446L110.429 36.7951L114.872 23.1217L103.241 14.6711H117.618L122.061 0.997726Z" fill="#FFD800"/>
<path fill-rule="evenodd" clip-rule="evenodd" d="M173.557 0.997726L178 14.6711H192.377L180.746 23.1217L185.189 36.7951L173.557 28.3446L161.926 36.7951L166.369 23.1217L154.738 14.6711H169.115L173.557 0.997726Z" fill="#FFD800"/>
<path fill-rule="evenodd" clip-rule="evenodd" d="M225.037 0.997726L229.48 14.6711H243.857L232.226 23.1217L236.669 36.7951L225.037 28.3446L213.406 36.7951L217.849 23.1217L206.218 14.6711H220.595L225.037 0.997726Z" fill="#FFD800"/>
</svg>
