<svg width="164" height="133" viewBox="0 0 164 133" fill="none" xmlns="http://www.w3.org/2000/svg">
<path d="M46.8038 35.0637V34.8025L48.1764 34.1333V25.2211L46.8038 24.5518V24.2907H51.7547V24.5518L50.2188 25.2211V34.1659H53.9769L55.2187 31.2278H55.4801V35.0637H46.8038ZM56.6387 35.0637V34.8025L57.6518 34.2475L61.8837 24.2091H63.0274L67.2104 34.2149L68.3214 34.8025V35.0637H63.6157V34.8025L65.0372 34.2312L63.8771 31.3911H59.9556L58.8119 34.2312L60.168 34.8025V35.0637H56.6387ZM60.3314 30.4933H63.5013L61.9164 26.5922L60.3314 30.4933ZM69.5088 35.0637V34.8025L70.865 34.1333V25.2374L69.5251 24.5518V24.2907H72.3355L78.6425 31.7338V25.1884L76.8779 24.5518V24.2907H81.1261V24.5518L79.7863 25.2047V35.1453H78.9367L72.0087 27.0166V34.1496L73.7897 34.8025V35.0637H69.5088ZM88.4396 35.2269C87.3067 35.2269 86.3209 34.9984 85.4821 34.5413C84.6543 34.0843 84.0116 33.4586 83.5541 32.6642C83.0966 31.859 82.8678 30.9503 82.8678 29.9383C82.8678 29.144 83.0258 28.3986 83.3417 27.7021C83.6576 26.9948 84.0878 26.3745 84.6325 25.8413C85.1771 25.3081 85.798 24.8892 86.4952 24.5845C87.1923 24.2798 87.9276 24.1274 88.701 24.1274C89.2566 24.1274 89.725 24.1655 90.1062 24.2417C90.4984 24.307 90.8415 24.3995 91.1356 24.5192C91.4406 24.628 91.7456 24.7586 92.0506 24.9109L92.1977 27.8817H91.9036L90.5964 25.5965C90.2587 25.368 89.9537 25.2047 89.6814 25.1068C89.4091 24.998 89.0932 24.9436 88.7337 24.9436C88.0256 24.9436 87.3884 25.1394 86.822 25.5312C86.2555 25.9229 85.8089 26.4725 85.4821 27.1798C85.1553 27.8871 84.992 28.7032 84.992 29.6282C84.992 30.6184 85.1499 31.4672 85.4658 32.1745C85.7817 32.8819 86.2065 33.426 86.7403 33.8068C87.2849 34.1877 87.8895 34.3781 88.554 34.3781C89.0441 34.3781 89.4635 34.3128 89.8121 34.1822C90.1716 34.0517 90.5038 33.8939 90.8088 33.7089L92.0669 31.7012H92.3447L92.1323 34.3944C91.6748 34.6447 91.1519 34.846 90.5637 34.9984C89.9864 35.1507 89.2783 35.2269 88.4396 35.2269ZM94.4822 35.0637V34.8025L95.8547 34.1333V25.2211L94.4822 24.5518V24.2907H99.1879V24.5518L97.8971 25.2211V29.0569H102.848V25.2211L101.557 24.5518V24.2907H106.247V24.5518L104.907 25.2211V34.1333L106.247 34.8025V35.0637H101.557V34.8025L102.848 34.1333V29.9547H97.8971V34.1333L99.1879 34.8025V35.0637H94.4822ZM107.965 35.0637V34.8025L109.338 34.1333V25.2211L107.965 24.5518V24.2907H116.511V27.1145H116.249L115.122 25.1884H111.38V29.0569H114.011L114.893 27.6695H115.155V31.3094H114.893L114.011 29.9547H111.38V34.1659H115.53L116.707 31.8807H116.968V35.0637H107.965Z" fill="#F00000"/>
<path d="M9.13256 93.7045V93.0855L11.4951 91.77L21.6038 67.9751H25.0121L35.0046 91.6926L37.6383 93.0855V93.7045H25.3994V93.0855L28.769 91.6926L26.1353 85.2699H16.9561L14.3225 91.6926L17.5371 93.0855V93.7045H9.13256ZM17.847 83.1419H25.2445L21.5651 74.1269L17.847 83.1419ZM40.0169 93.7045V93.0855L43.309 91.4992V70.4126L40.0169 68.7876V68.1685H47.3757L62.4035 85.1152V70.3352L57.9879 68.7876V68.1685H68.368V68.7876L65.1147 70.3739V93.898H62.7134L46.0202 75.249V91.4992L50.4355 93.0855V93.7045H40.0169ZM71.5633 93.7045V93.0855L74.8554 91.4992V70.3739L71.5633 68.7876V68.1685H92.6715V74.8621H92.0518L89.1857 70.2965H80.7037V79.4663H86.6683L88.8372 76.1389H89.4569V84.8443H88.8372L86.6683 81.5943H80.7037V91.5765H90.1153L93.1363 85.8116H93.756V93.7045H71.5633ZM97.0015 93.7045V93.0855L100.061 91.5378L108.117 81.6716L100.022 70.2191L97.4662 68.7876V68.1685H110.247V68.7876L107.188 70.2965V70.49L112.455 77.7639L118.265 70.49V70.3352L115.244 68.7876V68.1685H124.345V68.7876L121.75 70.1418L113.849 79.6984L122.447 91.5378L125.197 93.0855V93.7045H112.223V93.0855L115.011 91.6152V91.4605L109.511 83.6449L103.276 91.4218L103.198 91.5765L106.297 93.0855V93.7045H97.0015ZM140.302 94.0914C138.392 94.0914 136.623 93.7692 134.996 93.1242C133.37 92.4537 131.949 91.5378 130.736 90.3771C129.548 89.1904 128.618 87.7975 127.947 86.1985C127.276 84.5995 126.94 82.8451 126.94 80.9365C126.94 79.028 127.276 77.2736 127.947 75.6746C128.618 74.0755 129.548 72.6954 130.736 71.5346C131.949 70.3479 133.37 69.4326 134.996 68.7876C136.623 68.1171 138.392 67.7816 140.302 67.7816C142.239 67.7816 144.02 68.1171 145.647 68.7876C147.274 69.4326 148.681 70.3479 149.869 71.5346C151.082 72.6954 152.025 74.0755 152.696 75.6746C153.367 77.2736 153.703 79.028 153.703 80.9365C153.703 82.8451 153.367 84.5995 152.696 86.1985C152.025 87.7975 151.082 89.1904 149.869 90.3771C148.681 91.5378 147.274 92.4537 145.647 93.1242C144.02 93.7692 142.239 94.0914 140.302 94.0914ZM140.922 92.0795C142.213 92.0795 143.349 91.6666 144.33 90.8414C145.337 90.0162 146.112 88.8555 146.654 87.3592C147.222 85.863 147.506 84.1092 147.506 82.0973C147.506 79.621 147.158 77.4543 146.46 75.5972C145.789 73.74 144.873 72.3085 143.711 71.3025C142.549 70.2705 141.245 69.7549 139.799 69.7549C138.508 69.7549 137.359 70.1678 136.352 70.993C135.345 71.7928 134.544 72.9402 133.95 74.4365C133.382 75.9327 133.098 77.6865 133.098 79.6984C133.098 82.1746 133.447 84.3413 134.144 86.1985C134.841 88.0557 135.784 89.4999 136.971 90.5319C138.159 91.5638 139.476 92.0795 140.922 92.0795Z" fill="#223FA4"/>
<path fill-rule="evenodd" clip-rule="evenodd" d="M49.9262 45.3409L51.7119 51.1139H57.4908L52.8156 54.6817L54.6014 60.4546L49.9262 56.8868L45.251 60.4546L47.0367 54.6817L42.3616 51.1139H48.1405L49.9262 45.3409Z" fill="#FFD800"/>
<path fill-rule="evenodd" clip-rule="evenodd" d="M71.0997 45.3409L72.8856 51.1139H78.6643L73.9888 54.6817L75.7747 60.4546L71.0997 56.8868L66.4242 60.4546L68.2101 54.6817L63.5352 51.1139H69.3139L71.0997 45.3409Z" fill="#FFD800"/>
<path fill-rule="evenodd" clip-rule="evenodd" d="M81.6974 0L83.8403 6.92749H90.7749L85.1644 11.2089L87.3079 18.1364L81.6974 13.855L76.0869 18.1364L78.2298 11.2089L72.6199 6.92749H79.5545L81.6974 0Z" fill="#FFD800"/>
<path fill-rule="evenodd" clip-rule="evenodd" d="M92.6739 45.3409L94.4598 51.1139H100.238L95.5636 54.6817L97.3494 60.4546L92.6739 56.8868L87.999 60.4546L89.7843 54.6817L85.1093 51.1139H90.8881L92.6739 45.3409Z" fill="#FFD800"/>
<path fill-rule="evenodd" clip-rule="evenodd" d="M113.741 45.3409L115.527 51.1139H121.306L116.631 54.6817L118.416 60.4546L113.741 56.8868L109.066 60.4546L110.852 54.6817L106.177 51.1139H111.956L113.741 45.3409Z" fill="#FFD800"/>
<path d="M155.528 98.5409H7.86716C6.86448 98.5409 6.05166 99.3529 6.05166 100.355V107.005C6.05166 108.006 6.86448 108.818 7.86716 108.818H155.528C156.53 108.818 157.343 108.006 157.343 107.005V100.355C157.343 99.3529 156.53 98.5409 155.528 98.5409Z" fill="#F00000"/>
<path d="M11.6891 106.473C11.3793 106.473 11.1082 106.443 10.8758 106.385C10.6483 106.323 10.4207 106.233 10.1932 106.117L10.1206 104.906H10.2513L10.6943 105.74C10.9944 105.986 11.3091 106.11 11.6383 106.11C11.9094 106.11 12.1273 106.044 12.2919 105.914C12.4565 105.778 12.5388 105.587 12.5388 105.341C12.5388 105.157 12.4952 105.01 12.4081 104.898C12.3258 104.782 12.1975 104.678 12.0232 104.586C11.8489 104.49 11.6214 104.378 11.3406 104.253C11.0017 104.088 10.7402 103.912 10.5563 103.723C10.3723 103.53 10.2803 103.271 10.2803 102.947C10.2803 102.763 10.3263 102.586 10.4183 102.417C10.5103 102.248 10.6313 102.098 10.7814 101.967C10.9363 101.837 11.1082 101.733 11.297 101.655C11.4907 101.578 11.6891 101.539 11.8925 101.539C12.1346 101.539 12.3597 101.568 12.5679 101.626C12.7809 101.68 12.9842 101.757 13.1779 101.859L13.2505 103.019H13.127L12.684 102.221C12.5436 102.115 12.4129 102.035 12.2919 101.982C12.1709 101.929 12.0329 101.902 11.878 101.902C11.6746 101.902 11.5052 101.97 11.3696 102.105C11.2389 102.241 11.1735 102.412 11.1735 102.62C11.1735 102.838 11.2462 103.015 11.3914 103.15C11.5366 103.281 11.7787 103.426 12.1176 103.585C12.4129 103.721 12.655 103.854 12.8438 103.984C13.0326 104.115 13.173 104.262 13.265 104.427C13.357 104.591 13.403 104.794 13.403 105.036C13.403 105.268 13.3521 105.474 13.2505 105.653C13.1537 105.827 13.0205 105.977 12.8511 106.103C12.6865 106.223 12.5025 106.315 12.2992 106.378C12.0958 106.441 11.8925 106.473 11.6891 106.473ZM16.7921 106.473C16.3951 106.473 16.0441 106.405 15.7391 106.269C15.4341 106.134 15.1945 105.916 15.0202 105.616C14.8459 105.317 14.7587 104.92 14.7587 104.427V102.025L14.1487 101.728V101.612H16.2765V101.728L15.6737 102.025V104.383C15.6737 104.78 15.7367 105.097 15.8626 105.334C15.9884 105.566 16.1555 105.733 16.3636 105.834C16.5767 105.931 16.8139 105.979 17.0753 105.979C17.2883 105.979 17.4844 105.936 17.6635 105.849C17.8475 105.757 17.9952 105.614 18.1065 105.421C18.2179 105.222 18.2735 104.961 18.2735 104.637V102.011L17.5764 101.728V101.612H19.3846V101.728L18.7819 102.018V104.427C18.7819 104.92 18.6972 105.317 18.5277 105.616C18.3583 105.916 18.1235 106.134 17.8233 106.269C17.5231 106.405 17.1794 106.473 16.7921 106.473ZM19.6332 106.4V106.284L20.0834 106.037L21.9643 101.576H22.4726L24.3317 106.023L24.8255 106.284V106.4H22.734V106.284L23.3658 106.03L22.8502 104.768H21.1073L20.599 106.03L21.2018 106.284V106.4H19.6332ZM21.2744 104.369H22.6832L21.9788 102.635L21.2744 104.369ZM27.1687 106.4V106.284L27.7714 105.986L27.9239 102.025L27.2921 101.728V101.612H28.9043L30.4511 105.196L31.9907 101.612H33.5375V101.728L32.9202 101.975L33.0436 105.986L33.5738 106.284V106.4H31.5912V106.284L32.1577 105.994L32.0851 102.497L30.4003 106.436H30.0227L28.3379 102.533L28.2435 105.994L28.8607 106.284V106.4H27.1687ZM34.3107 106.4V106.284L34.9207 105.986V102.025L34.3107 101.728V101.612H38.1087V102.867H37.9925L37.4914 102.011H35.8284V103.73H36.9976L37.3898 103.114H37.506V104.731H37.3898L36.9976 104.129H35.8284V106.001H37.673L38.1958 104.985H38.312V106.4H34.3107ZM39.1685 106.4V106.284L39.7785 105.986V102.025L39.1685 101.728V101.612H41.3689V101.728L40.6863 102.025V106.001H42.3565L42.9085 104.695H43.0246V106.4H39.1685ZM43.7853 106.4V106.284L44.3953 105.986V102.025L43.7853 101.728V101.612H45.8767V101.728L45.303 102.025V103.73H47.5034V102.025L46.9297 101.728V101.612H49.0139V101.728L48.4184 102.025V105.986L49.0139 106.284V106.4H46.9297V106.284L47.5034 105.986V104.129H45.303V105.986L45.8767 106.284V106.4H43.7853ZM52.2905 106.473C51.9371 106.473 51.6103 106.412 51.3102 106.291C51.01 106.165 50.7486 105.994 50.5259 105.776C50.3032 105.554 50.1289 105.292 50.003 104.993C49.882 104.693 49.8214 104.364 49.8214 104.006C49.8214 103.648 49.882 103.319 50.003 103.019C50.1289 102.719 50.3032 102.461 50.5259 102.243C50.7486 102.021 51.01 101.849 51.3102 101.728C51.6103 101.602 51.9371 101.539 52.2905 101.539C52.6488 101.539 52.978 101.602 53.2782 101.728C53.5783 101.849 53.8397 102.021 54.0625 102.243C54.2852 102.461 54.457 102.719 54.578 103.019C54.7039 103.319 54.7669 103.648 54.7669 104.006C54.7669 104.364 54.7039 104.693 54.578 104.993C54.457 105.292 54.2852 105.554 54.0625 105.776C53.8397 105.994 53.5783 106.165 53.2782 106.291C52.978 106.412 52.6488 106.473 52.2905 106.473ZM52.4212 106.103C52.6924 106.103 52.9296 106.025 53.1329 105.87C53.3411 105.716 53.5033 105.498 53.6195 105.217C53.7357 104.937 53.7938 104.606 53.7938 104.224C53.7938 103.754 53.7211 103.346 53.5759 102.998C53.4355 102.649 53.2418 102.381 52.9949 102.192C52.7529 101.999 52.4818 101.902 52.1816 101.902C51.9153 101.902 51.6757 101.98 51.4627 102.134C51.2545 102.284 51.0899 102.499 50.9688 102.78C50.8478 103.06 50.7873 103.392 50.7873 103.774C50.7873 104.243 50.8599 104.652 51.0051 105C51.1504 105.348 51.3465 105.619 51.5934 105.812C51.8451 106.006 52.1211 106.103 52.4212 106.103ZM55.5576 106.4V106.284L56.1676 105.986V102.025L55.5576 101.728V101.612H57.7943C58.3027 101.612 58.7021 101.718 58.9926 101.931C59.2879 102.139 59.4355 102.427 59.4355 102.794C59.4355 103.065 59.3436 103.302 59.1596 103.505C58.9804 103.704 58.7432 103.858 58.4479 103.97L59.8059 106.008L60.3142 106.284V106.4H58.9562L57.5837 104.187H57.0754V105.979L57.62 106.284V106.4H55.5576ZM57.4458 102.011H57.0754V103.817H57.4893C57.7895 103.817 58.0316 103.733 58.2155 103.563C58.4043 103.394 58.4987 103.174 58.4987 102.903C58.4987 102.623 58.4068 102.405 58.2228 102.25C58.0388 102.091 57.7798 102.011 57.4458 102.011ZM64.9706 106.473C64.6172 106.473 64.2904 106.412 63.9903 106.291C63.6901 106.165 63.4287 105.994 63.206 105.776C62.9833 105.554 62.809 105.292 62.6831 104.993C62.5621 104.693 62.5015 104.364 62.5015 104.006C62.5015 103.648 62.5621 103.319 62.6831 103.019C62.809 102.719 62.9833 102.461 63.206 102.243C63.4287 102.021 63.6901 101.849 63.9903 101.728C64.2904 101.602 64.6172 101.539 64.9706 101.539C65.3289 101.539 65.6581 101.602 65.9583 101.728C66.2584 101.849 66.5199 102.021 66.7426 102.243C66.9653 102.461 67.1371 102.719 67.2582 103.019C67.384 103.319 67.447 103.648 67.447 104.006C67.447 104.364 67.384 104.693 67.2582 104.993C67.1371 105.292 66.9653 105.554 66.7426 105.776C66.5199 105.994 66.2584 106.165 65.9583 106.291C65.6581 106.412 65.3289 106.473 64.9706 106.473ZM65.1013 106.103C65.3725 106.103 65.6097 106.025 65.813 105.87C66.0212 105.716 66.1834 105.498 66.2996 105.217C66.4158 104.937 66.4739 104.606 66.4739 104.224C66.4739 103.754 66.4012 103.346 66.256 102.998C66.1156 102.649 65.922 102.381 65.675 102.192C65.433 101.999 65.1619 101.902 64.8617 101.902C64.5954 101.902 64.3558 101.98 64.1428 102.134C63.9346 102.284 63.77 102.499 63.6489 102.78C63.5279 103.06 63.4674 103.392 63.4674 103.774C63.4674 104.243 63.54 104.652 63.6853 105C63.8305 105.348 64.0266 105.619 64.2735 105.812C64.5252 106.006 64.8012 106.103 65.1013 106.103ZM68.2379 106.4V106.284L68.8479 105.986V102.025L68.2379 101.728V101.612H70.4964C71.0677 101.612 71.5252 101.716 71.8689 101.924C72.2175 102.127 72.3918 102.453 72.3918 102.903C72.3918 103.174 72.2998 103.414 72.1158 103.621C71.9367 103.825 71.6898 103.984 71.3751 104.1C71.0653 104.216 70.7143 104.274 70.3221 104.274H69.7557V105.986L70.4674 106.284V106.4H68.2379ZM69.7557 102.011V103.904H70.2204C70.6029 103.904 70.9031 103.817 71.1209 103.643C71.3388 103.464 71.4477 103.239 71.4477 102.969C71.4477 102.63 71.3364 102.386 71.1137 102.236C70.8958 102.086 70.5811 102.011 70.1696 102.011H69.7557ZM75.4346 107.916C75.5701 107.916 75.6694 107.89 75.7323 107.836C75.8001 107.788 75.834 107.723 75.834 107.64C75.834 107.534 75.7831 107.445 75.6815 107.372C75.5846 107.304 75.3958 107.229 75.115 107.147L75.4273 106.465C74.9528 106.446 74.5413 106.332 74.1927 106.124C73.849 105.911 73.5827 105.633 73.3939 105.29C73.2051 104.947 73.1107 104.557 73.1107 104.122C73.1107 103.769 73.1809 103.438 73.3213 103.128C73.4617 102.814 73.6529 102.538 73.895 102.301C74.1371 102.064 74.413 101.878 74.7229 101.743C75.0327 101.607 75.3595 101.539 75.7032 101.539C75.9502 101.539 76.1583 101.556 76.3278 101.59C76.5021 101.619 76.6546 101.66 76.7853 101.714C76.9208 101.762 77.0564 101.82 77.192 101.888L77.2573 103.208H77.1266L76.5456 102.192C76.3956 102.091 76.26 102.018 76.139 101.975C76.0179 101.926 75.8775 101.902 75.7178 101.902C75.4031 101.902 75.1199 101.989 74.8681 102.163C74.6164 102.337 74.4179 102.582 74.2726 102.896C74.1274 103.21 74.0548 103.573 74.0548 103.984C74.0548 104.424 74.125 104.802 74.2654 105.116C74.4058 105.43 74.5946 105.672 74.8318 105.841C75.0739 106.011 75.3426 106.095 75.6379 106.095C75.8558 106.095 76.0421 106.066 76.1971 106.008C76.3568 105.95 76.5045 105.88 76.64 105.798L77.1992 104.906H77.3227L77.2283 106.103C77.0346 106.209 76.8143 106.296 76.5674 106.364C76.3254 106.431 76.0325 106.468 75.6887 106.473L75.5653 106.741C75.8412 106.828 76.0349 106.927 76.1462 107.038C76.2576 107.15 76.3133 107.302 76.3133 107.495C76.3133 107.679 76.2479 107.832 76.1172 107.952C75.9865 108.078 75.8073 108.141 75.5798 108.141C75.3135 108.141 75.115 108.078 74.9843 107.952V107.836H75.0061C75.1174 107.89 75.2603 107.916 75.4346 107.916ZM77.9629 106.4V106.284L78.4132 106.037L80.294 101.576H80.8024L82.6614 106.023L83.1553 106.284V106.4H81.0638V106.284L81.6956 106.03L81.18 104.768H79.4371L78.9288 106.03L79.5315 106.284V106.4H77.9629ZM79.6041 104.369H81.013L80.3086 102.635L79.6041 104.369ZM86.0262 106.473C85.6728 106.473 85.346 106.412 85.0458 106.291C84.7456 106.165 84.4842 105.994 84.2615 105.776C84.0388 105.554 83.8645 105.292 83.7386 104.993C83.6176 104.693 83.5571 104.364 83.5571 104.006C83.5571 103.648 83.6176 103.319 83.7386 103.019C83.8645 102.719 84.0388 102.461 84.2615 102.243C84.4842 102.021 84.7456 101.849 85.0458 101.728C85.346 101.602 85.6728 101.539 86.0262 101.539C86.3844 101.539 86.7136 101.602 87.0138 101.728C87.314 101.849 87.5754 102.021 87.7981 102.243C88.0208 102.461 88.1927 102.719 88.3137 103.019C88.4396 103.319 88.5025 103.648 88.5025 104.006C88.5025 104.364 88.4396 104.693 88.3137 104.993C88.1927 105.292 88.0208 105.554 87.7981 105.776C87.5754 105.994 87.314 106.165 87.0138 106.291C86.7136 106.412 86.3844 106.473 86.0262 106.473ZM86.1569 106.103C86.428 106.103 86.6652 106.025 86.8686 105.87C87.0767 105.716 87.2389 105.498 87.3551 105.217C87.4713 104.937 87.5294 104.606 87.5294 104.224C87.5294 103.754 87.4568 103.346 87.3115 102.998C87.1711 102.649 86.9775 102.381 86.7306 102.192C86.4885 101.999 86.2174 101.902 85.9172 101.902C85.651 101.902 85.4113 101.98 85.1983 102.134C84.9901 102.284 84.8255 102.499 84.7045 102.78C84.5835 103.06 84.5229 103.392 84.5229 103.774C84.5229 104.243 84.5956 104.652 84.7408 105C84.886 105.348 85.0821 105.619 85.329 105.812C85.5808 106.006 85.8567 106.103 86.1569 106.103ZM91.109 106.4V106.284L91.719 105.986V102.025L91.109 101.728V101.612H94.907V102.867H94.7908L94.2897 102.011H92.6267V103.73H93.7959L94.188 103.114H94.3042V104.731H94.188L93.7959 104.129H92.6267V106.001H94.4713L94.9941 104.985H95.1103V106.4H91.109ZM95.9448 106.4V106.284L96.5476 105.986L96.7001 102.025L96.0683 101.728V101.612H97.6805L99.2273 105.196L100.767 101.612H102.314V101.728L101.696 101.975L101.82 105.986L102.35 106.284V106.4H100.367V106.284L100.934 105.994L100.861 102.497L99.1764 106.436H98.7988L97.114 102.533L97.0196 105.994L97.6369 106.284V106.4H95.9448ZM107.422 106.473C106.919 106.473 106.481 106.371 106.108 106.168C105.74 105.965 105.454 105.687 105.251 105.334C105.048 104.976 104.946 104.572 104.946 104.122C104.946 103.769 105.016 103.438 105.157 103.128C105.297 102.814 105.488 102.538 105.73 102.301C105.972 102.064 106.248 101.878 106.558 101.743C106.868 101.607 107.195 101.539 107.539 101.539C107.786 101.539 107.994 101.556 108.163 101.59C108.337 101.619 108.49 101.66 108.621 101.714C108.756 101.762 108.892 101.82 109.027 101.888L109.093 103.208H108.962L108.381 102.192C108.231 102.091 108.095 102.018 107.974 101.975C107.853 101.926 107.713 101.902 107.553 101.902C107.238 101.902 106.955 101.989 106.703 102.163C106.452 102.337 106.253 102.582 106.108 102.896C105.963 103.21 105.89 103.573 105.89 103.984C105.89 104.424 105.96 104.802 106.101 105.116C106.241 105.43 106.43 105.672 106.667 105.841C106.909 106.011 107.178 106.095 107.473 106.095C107.691 106.095 107.878 106.066 108.032 106.008C108.192 105.95 108.34 105.88 108.475 105.798L109.035 104.906H109.158L109.064 106.103C108.86 106.214 108.628 106.303 108.366 106.371C108.11 106.439 107.795 106.473 107.422 106.473ZM112.62 106.473C112.267 106.473 111.94 106.412 111.64 106.291C111.34 106.165 111.078 105.994 110.856 105.776C110.633 105.554 110.459 105.292 110.333 104.993C110.212 104.693 110.151 104.364 110.151 104.006C110.151 103.648 110.212 103.319 110.333 103.019C110.459 102.719 110.633 102.461 110.856 102.243C111.078 102.021 111.34 101.849 111.64 101.728C111.94 101.602 112.267 101.539 112.62 101.539C112.978 101.539 113.308 101.602 113.608 101.728C113.908 101.849 114.169 102.021 114.392 102.243C114.615 102.461 114.787 102.719 114.908 103.019C115.034 103.319 115.097 103.648 115.097 104.006C115.097 104.364 115.034 104.693 114.908 104.993C114.787 105.292 114.615 105.554 114.392 105.776C114.169 105.994 113.908 106.165 113.608 106.291C113.308 106.412 112.978 106.473 112.62 106.473ZM112.751 106.103C113.022 106.103 113.259 106.025 113.463 105.87C113.671 105.716 113.833 105.498 113.949 105.217C114.065 104.937 114.123 104.606 114.123 104.224C114.123 103.754 114.051 103.346 113.906 102.998C113.765 102.649 113.572 102.381 113.325 102.192C113.083 101.999 112.811 101.902 112.511 101.902C112.245 101.902 112.005 101.98 111.792 102.134C111.584 102.284 111.42 102.499 111.299 102.78C111.177 103.06 111.117 103.392 111.117 103.774C111.117 104.243 111.19 104.652 111.335 105C111.48 105.348 111.676 105.619 111.923 105.812C112.175 106.006 112.451 106.103 112.751 106.103ZM115.845 106.4V106.284L116.447 105.986L116.6 102.025L115.968 101.728V101.612H117.58L119.127 105.196L120.666 101.612H122.213V101.728L121.596 101.975L121.719 105.986L122.25 106.284V106.4H120.267V106.284L120.834 105.994L120.761 102.497L119.076 106.436H118.698L117.014 102.533L116.919 105.994L117.537 106.284V106.4H115.845ZM122.987 106.4V106.284L123.597 105.986V102.025L122.987 101.728V101.612H126.785V102.867H126.669L126.167 102.011H124.504V103.73H125.674L126.066 103.114H126.182V104.731H126.066L125.674 104.129H124.504V106.001H126.349L126.872 104.985H126.988V106.4H122.987ZM127.844 106.4V106.284L128.454 105.986V102.025L127.844 101.728V101.612H130.081C130.589 101.612 130.989 101.718 131.279 101.931C131.575 102.139 131.722 102.427 131.722 102.794C131.722 103.065 131.63 103.302 131.446 103.505C131.267 103.704 131.03 103.858 130.735 103.97L132.093 106.008L132.601 106.284V106.4H131.243L129.87 104.187H129.362V105.979L129.907 106.284V106.4H127.844ZM129.732 102.011H129.362V103.817H129.776C130.076 103.817 130.318 103.733 130.502 103.563C130.691 103.394 130.785 103.174 130.785 102.903C130.785 102.623 130.693 102.405 130.509 102.25C130.326 102.091 130.067 102.011 129.732 102.011ZM134.744 106.4V106.284L135.354 105.986V102.025L134.744 101.728V101.612H136.872C137.206 101.612 137.506 101.653 137.773 101.735C138.039 101.813 138.247 101.931 138.397 102.091C138.552 102.246 138.63 102.444 138.63 102.686C138.63 102.932 138.54 103.16 138.361 103.368C138.187 103.571 137.935 103.716 137.606 103.803C138.056 103.866 138.409 104.001 138.666 104.209C138.927 104.417 139.058 104.683 139.058 105.007C139.058 105.273 138.971 105.512 138.797 105.725C138.622 105.933 138.383 106.098 138.078 106.219C137.773 106.34 137.427 106.4 137.039 106.4H134.744ZM136.589 102.011H136.262V103.745H136.633C136.962 103.745 137.218 103.67 137.402 103.52C137.591 103.37 137.686 103.162 137.686 102.896C137.686 102.306 137.32 102.011 136.589 102.011ZM136.858 104.115H136.262V106.001H136.909C137.272 106.001 137.557 105.914 137.765 105.74C137.978 105.561 138.085 105.331 138.085 105.051C138.085 104.731 137.978 104.497 137.765 104.347C137.552 104.192 137.25 104.115 136.858 104.115ZM139.723 106.4V106.284L140.333 105.986V102.025L139.723 101.728V101.612H143.521V102.867H143.405L142.904 102.011H141.241V103.73H142.41L142.802 103.114H142.918V104.731H142.802L142.41 104.129H141.241V106.001H143.085L143.608 104.985H143.725V106.4H139.723ZM144.559 106.4V106.284L145.162 105.986L145.314 102.025L144.682 101.728V101.612H146.295L147.841 105.196L149.381 101.612H150.928V101.728L150.311 101.975L150.434 105.986L150.964 106.284V106.4H148.982V106.284L149.548 105.994L149.475 102.497L147.791 106.436H147.413L145.728 102.533L145.634 105.994L146.251 106.284V106.4H144.559ZM152.101 105.058L151.723 102.337H152.653L152.275 105.058H152.101ZM152.18 106.436C152.045 106.436 151.929 106.388 151.832 106.291C151.735 106.19 151.687 106.071 151.687 105.936C151.687 105.8 151.735 105.684 151.832 105.587C151.929 105.486 152.045 105.435 152.18 105.435C152.316 105.435 152.432 105.486 152.529 105.587C152.631 105.684 152.682 105.8 152.682 105.936C152.682 106.071 152.631 106.19 152.529 106.291C152.432 106.388 152.316 106.436 152.18 106.436Z" fill="#FFD800"/>
</svg>
